<svg width="200" height="200" viewBox="0 0 200 200" fill="none" xmlns="http://www.w3.org/2000/svg">
<rect width="200" height="200" rx="30" fill="#391E5A"/>
<path d="M100.001 108.668C101.353 108.668 102.674 108.267 103.798 107.516C104.921 106.765 105.797 105.698 106.314 104.45C106.832 103.201 106.967 101.827 106.703 100.502C106.44 99.176 105.789 97.9584 104.833 97.0027C103.878 96.0471 102.66 95.3963 101.334 95.1326C100.009 94.8689 98.6349 95.0043 97.3863 95.5215C96.1377 96.0387 95.0705 96.9145 94.3196 98.0382C93.5687 99.162 93.168 100.483 93.168 101.835C93.168 103.647 93.8879 105.385 95.1694 106.667C96.4509 107.948 98.189 108.668 100.001 108.668ZM134.168 108.668C135.519 108.668 136.841 108.267 137.964 107.516C139.088 106.765 139.964 105.698 140.481 104.45C140.998 103.201 141.134 101.827 140.87 100.502C140.606 99.176 139.956 97.9584 139 97.0027C138.044 96.0471 136.827 95.3963 135.501 95.1326C134.176 94.8689 132.802 95.0043 131.553 95.5215C130.304 96.0387 129.237 96.9145 128.486 98.0382C127.735 99.162 127.335 100.483 127.335 101.835C127.335 103.647 128.055 105.385 129.336 106.667C130.618 107.948 132.356 108.668 134.168 108.668ZM100.001 136.001C101.353 136.001 102.674 135.601 103.798 134.85C104.921 134.099 105.797 133.032 106.314 131.783C106.832 130.534 106.967 129.16 106.703 127.835C106.44 126.509 105.789 125.292 104.833 124.336C103.878 123.38 102.66 122.73 101.334 122.466C100.009 122.202 98.6349 122.338 97.3863 122.855C96.1377 123.372 95.0705 124.248 94.3196 125.372C93.5687 126.495 93.168 127.816 93.168 129.168C93.168 130.98 93.8879 132.718 95.1694 134C96.4509 135.281 98.189 136.001 100.001 136.001ZM134.168 136.001C135.519 136.001 136.841 135.601 137.964 134.85C139.088 134.099 139.964 133.032 140.481 131.783C140.998 130.534 141.134 129.16 140.87 127.835C140.606 126.509 139.956 125.292 139 124.336C138.044 123.38 136.827 122.73 135.501 122.466C134.176 122.202 132.802 122.338 131.553 122.855C130.304 123.372 129.237 124.248 128.486 125.372C127.735 126.495 127.335 127.816 127.335 129.168C127.335 130.98 128.055 132.718 129.336 134C130.618 135.281 132.356 136.001 134.168 136.001ZM65.8346 108.668C67.1861 108.668 68.5073 108.267 69.631 107.516C70.7548 106.765 71.6306 105.698 72.1478 104.45C72.665 103.201 72.8003 101.827 72.5367 100.502C72.273 99.176 71.6222 97.9584 70.6665 97.0027C69.7109 96.0471 68.4933 95.3963 67.1678 95.1326C65.8422 94.8689 64.4683 95.0043 63.2196 95.5215C61.971 96.0387 60.9038 96.9145 60.1529 98.0382C59.4021 99.162 59.0013 100.483 59.0013 101.835C59.0013 103.647 59.7212 105.385 61.0027 106.667C62.2842 107.948 64.0223 108.668 65.8346 108.668ZM147.835 40.3346H141.001V33.5013C141.001 31.689 140.281 29.9509 139 28.6694C137.718 27.3879 135.98 26.668 134.168 26.668C132.356 26.668 130.618 27.3879 129.336 28.6694C128.055 29.9509 127.335 31.689 127.335 33.5013V40.3346H72.668V33.5013C72.668 31.689 71.948 29.9509 70.6665 28.6694C69.385 27.3879 67.6469 26.668 65.8346 26.668C64.0223 26.668 62.2842 27.3879 61.0027 28.6694C59.7212 29.9509 59.0013 31.689 59.0013 33.5013V40.3346H52.168C46.731 40.3346 41.5168 42.4945 37.6723 46.3389C33.8278 50.1834 31.668 55.3977 31.668 60.8346V142.835C31.668 148.272 33.8278 153.486 37.6723 157.33C41.5168 161.175 46.731 163.335 52.168 163.335H147.835C153.272 163.335 158.486 161.175 162.33 157.33C166.175 153.486 168.335 148.272 168.335 142.835V60.8346C168.335 55.3977 166.175 50.1834 162.33 46.3389C158.486 42.4945 153.272 40.3346 147.835 40.3346ZM154.668 142.835C154.668 144.647 153.948 146.385 152.667 147.667C151.385 148.948 149.647 149.668 147.835 149.668H52.168C50.3557 149.668 48.6176 148.948 47.3361 147.667C46.0546 146.385 45.3346 144.647 45.3346 142.835V81.3346H154.668V142.835ZM154.668 67.668H45.3346V60.8346C45.3346 59.0223 46.0546 57.2842 47.3361 56.0027C48.6176 54.7212 50.3557 54.0013 52.168 54.0013H147.835C149.647 54.0013 151.385 54.7212 152.667 56.0027C153.948 57.2842 154.668 59.0223 154.668 60.8346V67.668ZM65.8346 136.001C67.1861 136.001 68.5073 135.601 69.631 134.85C70.7548 134.099 71.6306 133.032 72.1478 131.783C72.665 130.534 72.8003 129.16 72.5367 127.835C72.273 126.509 71.6222 125.292 70.6665 124.336C69.7109 123.38 68.4933 122.73 67.1678 122.466C65.8422 122.202 64.4683 122.338 63.2196 122.855C61.971 123.372 60.9038 124.248 60.1529 125.372C59.4021 126.495 59.0013 127.816 59.0013 129.168C59.0013 130.98 59.7212 132.718 61.0027 134C62.2842 135.281 64.0223 136.001 65.8346 136.001Z" fill="#F8F8F8"/>
</svg>
